<svg width="1024" height="1024" viewBox="0 0 1024 1024" fill="none" xmlns="http://www.w3.org/2000/svg" role="img" aria-labelledby="title desc">
  <title id="title">Classnote logo icon</title>
  <desc id="desc">A modern editorial-tech icon showing lecture text transforming into a refined document.</desc>

  <rect x="64" y="64" width="896" height="896" rx="168" fill="#30465E"/>
  <path d="M512 64H792C884.784 64 960 139.216 960 232V792C960 884.784 884.784 960 792 960H512V64Z" fill="#7286A4"/>

  <path d="M628 104C596 104 576 126 576 160V460C576 522 635 563 691 538L938 422"
        stroke="#F3F4F1"
        stroke-width="26"
        stroke-linecap="round"
        stroke-linejoin="round"/>

  <rect x="150" y="270" width="196" height="52" rx="26" fill="#F3F4F1"/>
  <rect x="204" y="430" width="300" height="52" rx="26" fill="#F3F4F1"/>
  <rect x="244" y="590" width="260" height="52" rx="26" fill="#F3F4F1"/>
  <rect x="300" y="748" width="156" height="52" rx="26" fill="#F3F4F1"/>
</svg>
